<svg width="24" height="24" viewBox="0 0 24 24" fill="none" xmlns="http://www.w3.org/2000/svg">
<path d="M10.67 19.97C10.43 19.99 10.19 20 9.95 20C8.78 20 7.66999 19.72 6.67999 19.23L2.78999 19.79L3.38 15.88H3.39C2.99 15 2.75 14.03 2.75 13C2.75 11.11 3.51999 9.40001 4.75999 8.14001" stroke="#8E908F" stroke-width="1.5" stroke-linecap="round" stroke-linejoin="round"/>
<path d="M10.8601 11.78C11.3019 11.78 11.6601 11.4308 11.6601 11C11.6601 10.5692 11.3019 10.22 10.8601 10.22C10.4182 10.22 10.0601 10.5692 10.0601 11C10.0601 11.4308 10.4182 11.78 10.8601 11.78Z" fill="#8E908F"/>
<path d="M14.06 11.78C14.5018 11.78 14.86 11.4308 14.86 11C14.86 10.5692 14.5018 10.22 14.06 10.22C13.6182 10.22 13.26 10.5692 13.26 11C13.26 11.4308 13.6182 11.78 14.06 11.78Z" fill="#8E908F"/>
<path d="M17.25 11.78C17.6918 11.78 18.05 11.4308 18.05 11C18.05 10.5692 17.6918 10.22 17.25 10.22C16.8081 10.22 16.45 10.5692 16.45 11C16.45 11.4308 16.8081 11.78 17.25 11.78Z" fill="#8E908F"/>
<path d="M20.6201 13.88L21.2101 17.79L17.3201 17.23C16.6201 17.58 15.8601 17.82 15.0501 17.93C14.7301 17.98 14.3901 18 14.0501 18C10.0701 18 6.86011 14.87 6.86011 11C6.86011 9.07 7.6501 7.35 8.9501 6.08C10.2401 4.79 12.0501 4 14.0601 4C18.0401 4 21.2501 7.13 21.2501 11C21.2501 12.03 21.0101 13 20.6101 13.88H20.6201V13.88Z" stroke="#8E908F" stroke-width="1.5" stroke-linecap="round" stroke-linejoin="round"/>
</svg>
