<svg width="18" height="22" viewBox="0 0 18 22" fill="none" xmlns="http://www.w3.org/2000/svg">
<path d="M16.22 8.21999L14.89 9.01003L9.60997 12.14C9.20997 12.36 8.70998 12.36 8.31998 12.14L3.03997 9.01003L1.70998 8.21999C0.819981 7.69999 0.819981 6.36005 1.70998 5.84005L8.32998 1.91C8.72998 1.69 9.22997 1.69 9.61997 1.91L16.24 5.84005C17.11 6.36005 17.11 7.70999 16.22 8.21999Z" stroke="#8E908F" stroke-width="1.5" stroke-linecap="round" stroke-linejoin="round"/>
<path d="M16.8301 10.5901C17.0001 11.1701 16.8001 11.8501 16.2201 12.1901L9.60008 16.1201C9.20008 16.3401 8.70007 16.3401 8.31007 16.1201L1.69008 12.1901C1.15008 11.8701 0.940071 11.2501 1.06007 10.6901" stroke="#8E908F" stroke-width="1.5" stroke-linecap="round" stroke-linejoin="round"/>
<path d="M16.8502 14.62C16.9902 15.19 16.7802 15.83 16.2302 16.16L9.6102 20.09C9.2102 20.31 8.71021 20.31 8.32021 20.09L1.7002 16.16C1.1902 15.86 0.970204 15.29 1.0502 14.76" stroke="#8E908F" stroke-width="1.5" stroke-linecap="round" stroke-linejoin="round"/>
</svg>
