<svg width="20" height="16" viewBox="0 0 20 16" fill="none" xmlns="http://www.w3.org/2000/svg">
<path d="M6.84006 6.84004C8.50796 6.84004 9.86006 5.48795 9.86006 3.82005C9.86006 2.15215 8.50796 0.800049 6.84006 0.800049C5.17216 0.800049 3.82007 2.15215 3.82007 3.82005C3.82007 5.48795 5.17216 6.84004 6.84006 6.84004Z" stroke="#16216C" stroke-width="1.5" stroke-linecap="round" stroke-linejoin="round"/>
<path d="M0.75 15.2001V13.4801C0.75 11.4801 2.37 9.86011 4.37 9.86011H9.78999C11.79 9.86011 13.41 11.4801 13.41 13.4801V15.2001" stroke="#16216C" stroke-width="1.5" stroke-linecap="round" stroke-linejoin="round"/>
<path d="M14.3799 7.69997C15.617 7.69997 16.6199 6.69709 16.6199 5.45997C16.6199 4.22285 15.617 3.21997 14.3799 3.21997C13.1428 3.21997 12.1399 4.22285 12.1399 5.45997C12.1399 6.69709 13.1428 7.69997 14.3799 7.69997Z" stroke="#16216C" stroke-width="1.5" stroke-linecap="round" stroke-linejoin="round"/>
<path d="M15.02 9.94006H16.56C18.04 9.94006 19.24 11.1401 19.24 12.6201V13.9001" stroke="#16216C" stroke-width="1.5" stroke-linecap="round" stroke-linejoin="round"/>
</svg>
