<svg width="14" height="23" viewBox="0 0 14 23" fill="none" xmlns="http://www.w3.org/2000/svg">
<path d="M13.7015 6.1936C14.0951 6.58103 14.1001 7.21418 13.7127 7.60777C13.3252 8.00135 12.6921 8.00634 12.2985 7.6189L13.7015 6.1936ZM6.29848 1.71265C5.9049 1.32522 5.89991 0.69207 6.28735 0.298483C6.67478 -0.0951043 7.30793 -0.10009 7.70152 0.287348L6.29848 1.71265ZM6.29848 0.287348C6.69207 -0.10009 7.32522 -0.0951043 7.71265 0.298483C8.10009 0.69207 8.0951 1.32522 7.70152 1.71265L6.29848 0.287348ZM1.70152 7.6189C1.30793 8.00634 0.674785 8.00135 0.287348 7.60777C-0.10009 7.21418 -0.0951042 6.58103 0.298483 6.1936L1.70152 7.6189ZM6 1C6 0.447715 6.44772 0 7 0C7.55228 0 8 0.447715 8 1L6 1ZM8 22C8 22.5523 7.55228 23 7 23C6.44772 23 6 22.5523 6 22H8ZM12.2985 7.6189L6.29848 1.71265L7.70152 0.287348L13.7015 6.1936L12.2985 7.6189ZM7.70152 1.71265L1.70152 7.6189L0.298483 6.1936L6.29848 0.287348L7.70152 1.71265ZM8 1L8 22H6L6 1L8 1Z" fill="white"/>
</svg>
