<svg width="16" height="16" viewBox="0 0 16 16" fill="none" xmlns="http://www.w3.org/2000/svg">
<path fill-rule="evenodd" clip-rule="evenodd" d="M1.97587 8.48205C1.99472 8.60178 2.01229 8.71348 2.01229 8.82518L0.135249 10.1088C-0.0280075 10.1891 -0.0280075 10.4298 0.0536051 10.5902L1.68585 13.3982C1.76749 13.5587 2.01229 13.639 2.17555 13.5587L4.21585 12.7564C4.62391 13.0774 5.11358 13.318 5.60325 13.5587L5.9297 15.6447C5.9297 15.8051 6.17451 15.9656 6.33776 15.9656H9.60224C9.84708 15.9656 10.0103 15.8051 10.0103 15.6447L10.3368 13.5587C10.8264 13.318 11.3161 13.0774 11.7242 12.7564L13.7645 13.5587C14.0093 13.639 14.1725 13.5587 14.2541 13.4785L15.8864 10.6705C15.968 10.51 15.968 10.3496 15.8048 10.1891L14.0909 8.82518C14.1725 8.5845 14.1725 8.34381 14.1725 8.02289C14.1725 7.85092 14.1491 7.70198 14.1273 7.56374C14.1085 7.44401 14.0909 7.33231 14.0909 7.22061L15.8048 5.93694C15.968 5.77648 16.0496 5.5358 15.968 5.45557L14.3357 2.64756C14.1725 2.4871 14.0093 2.40687 13.7644 2.4871L11.8057 3.28939C11.7058 3.22387 11.6092 3.15834 11.5146 3.09419C11.146 2.84412 10.808 2.61479 10.4183 2.4871L10.0919 0.320916C10.0919 0.160458 9.84708 0 9.68382 0H6.41934C6.25615 0 6.01128 0.160458 6.0929 0.401145L5.76645 2.4871C5.27677 2.72778 4.7871 2.96847 4.37904 3.28939L2.33874 2.4871C2.09387 2.40687 1.93068 2.4871 1.84907 2.56733L0.216829 5.37534C0.135218 5.5358 0.135217 5.69626 0.298441 5.85671L2.01229 7.22061C1.93068 7.46129 1.93068 7.70197 1.93068 8.02288V8.02289C1.93068 8.19487 1.95412 8.34381 1.97587 8.48205ZM10.8387 8.23226C10.8387 9.7219 9.54101 10.9763 8 10.9763C6.45899 10.9763 5.16129 9.7219 5.16129 8.23226C5.16129 6.74261 6.45899 5.48817 8 5.48817C9.54101 5.48817 10.8387 6.74261 10.8387 8.23226Z" fill="white"/>
</svg>
