<svg width="21" height="17" viewBox="0 0 21 17" fill="none" xmlns="http://www.w3.org/2000/svg">
<path fill-rule="evenodd" clip-rule="evenodd" d="M17.2536 16.4492C17.5061 16.4385 17.742 16.3229 17.905 16.1301C19.6652 14.0452 20.6343 11.3935 20.6339 8.664C20.6339 5.82711 19.5973 3.09737 17.7153 0.978459C17.5503 0.792777 17.3155 0.683075 17.0673 0.676032C16.8059 0.667708 16.5779 0.764818 16.4025 0.941109L16.2842 1.05956C15.9483 1.39678 15.9323 1.93696 16.248 2.29382C17.8049 4.05161 18.6627 6.31394 18.6627 8.664C18.6627 10.9233 17.8615 13.1199 16.4072 14.8496C16.1062 15.2077 16.1287 15.7368 16.4597 16.0676L16.5781 16.1861C16.7478 16.3557 16.977 16.4501 17.2159 16.4501C17.2225 16.4501 17.2292 16.4499 17.2357 16.4498C17.2417 16.4496 17.2477 16.4494 17.2536 16.4492ZM10.7114 14.7524C10.7114 15.1022 10.5093 15.42 10.193 15.5684C10.0707 15.6262 9.93965 15.6542 9.80946 15.6542C9.60329 15.6542 9.39904 15.5833 9.23406 15.4465L4.3043 11.3615H1.67871C1.18078 11.3619 0.776978 10.9579 0.776978 10.46V6.86733C0.776978 6.36919 1.18078 5.96538 1.67871 5.96538H4.30451L9.23427 1.88037C9.50362 1.65713 9.87712 1.60953 10.1932 1.75893C10.5093 1.90727 10.7116 2.22527 10.7116 2.57487L10.7114 14.7524ZM14.1768 13.3432C14.1548 13.3447 14.1337 13.3456 14.1119 13.3456C13.8738 13.3456 13.6441 13.2514 13.4744 13.0815L13.3539 12.9605C13.0376 12.6449 13.0004 12.1448 13.2668 11.7858C13.9421 10.8753 14.2985 9.79604 14.2985 8.6638C14.2985 7.44598 13.8938 6.30372 13.128 5.36036C12.8365 5.00181 12.8634 4.48104 13.1902 4.1545L13.3105 4.03391C13.4907 3.85378 13.732 3.7556 13.9933 3.77118C14.2477 3.78399 14.4852 3.90372 14.6466 4.10093C15.7088 5.4007 16.2699 6.97879 16.2699 8.66402C16.2699 10.2336 15.7737 11.7276 14.8346 12.9838C14.6777 13.1932 14.4379 13.3246 14.1768 13.3432Z" fill="white"/>
</svg>
