<svg width="40" height="40" viewBox="0 0 40 40" fill="none" xmlns="http://www.w3.org/2000/svg">
<circle opacity="0.1" cx="20" cy="20" r="20" fill="#2A6EBB"/>
<path d="M31.4875 26.2375C31.4875 27.4771 30.4812 28.4833 29.2417 28.4833H9.75833C8.51875 28.4833 7.5125 27.4771 7.5125 26.2375C7.5125 24.9979 8.51875 23.9917 9.75833 23.9917H10.5021V16.4958C10.5021 11.5375 14.5271 7.49792 19.5 7.49792C21.9792 7.49792 24.225 8.50417 25.8583 10.1375C27.4917 11.7563 28.4979 14.0021 28.4979 16.4958V23.9917H29.2417C30.4812 23.9917 31.4875 24.9979 31.4875 26.2375Z" stroke="#16216C" stroke-width="1.5" stroke-linecap="round" stroke-linejoin="round"/>
<path d="M19.5 7.51246V6.01038" stroke="#16216C" stroke-width="1.5" stroke-linecap="round" stroke-linejoin="round"/>
<path d="M23.9915 28.4978C23.9915 30.9916 21.979 32.9895 19.4998 32.9895C17.0207 32.9895 15.0082 30.977 15.0082 28.4978H23.9915Z" stroke="#16216C" stroke-width="1.5" stroke-linecap="round" stroke-linejoin="round"/>
</svg>
