<svg width="150" height="49" viewBox="0 0 150 49" fill="none" xmlns="http://www.w3.org/2000/svg">
<path d="M8.84863 48.6277H11.2812V45.0897H13.1923L15.5618 48.6277H18.4051L15.7042 44.679C17.1101 44.1579 18.0734 43.0364 18.0734 41.2513V41.2198C18.0734 40.1774 17.7418 39.3086 17.1259 38.6924C16.3993 37.9658 15.3093 37.5712 13.9037 37.5712H8.84921V48.6277H8.84863ZM11.2809 42.9415V39.7667H13.6976C14.8822 39.7667 15.6088 40.3035 15.6088 41.3462V41.3777C15.6088 42.3098 14.9295 42.9415 13.7449 42.9415H11.2809ZM20.5054 48.6277H28.9242V46.4638H22.9221V44.1419H28.1346V41.9779H22.9221V39.7348H28.8454V37.5709H20.5054V48.6277ZM31.3252 48.6277H33.7102V41.4568L36.7902 46.1322H36.8535L39.9653 41.4096V48.628H42.3821V37.5715H39.7601L36.8538 42.2468L33.9475 37.5715H31.3255V48.6277H31.3252ZM50.643 48.8175C54.0546 48.8175 56.5347 46.2428 56.5347 43.0997V43.0679C56.5347 39.9246 54.0864 37.3817 50.6745 37.3817C47.2629 37.3817 44.7828 39.9564 44.7828 43.0995V43.131C44.7828 46.2743 47.2311 48.8175 50.643 48.8175ZM50.6745 46.5744C48.716 46.5744 47.326 44.9949 47.326 43.0995V43.0676C47.326 41.1722 48.6845 39.6242 50.643 39.6242C52.6014 39.6242 53.9915 41.2038 53.9915 43.0992V43.1307C53.9915 45.0267 52.6332 46.5744 50.6745 46.5744ZM61.0363 48.6277H63.4688V39.814H66.8332V37.5712H57.672V39.814H61.0363V48.6277ZM68.9341 48.6277H77.3529V46.4638H71.3508V44.1419H76.5633V41.9779H71.3508V39.7348H77.2741V37.5709H68.9341V48.6277ZM88.6623 48.786C91.0475 48.786 92.7216 47.5538 92.7216 45.3583V45.3265C92.7216 43.3995 91.4579 42.5939 89.2152 42.0094C87.3037 41.5199 86.8302 41.2829 86.8302 40.5563V40.5248C86.8302 39.9876 87.3197 39.5612 88.2515 39.5612C89.1833 39.5612 90.1472 39.9719 91.1263 40.6512L92.39 38.8191C91.2685 37.9185 89.8944 37.4132 88.2834 37.4132C86.0245 37.4132 84.4134 38.74 84.4134 40.746V40.7776C84.4134 42.9731 85.8508 43.5893 88.0781 44.1579C89.926 44.6317 90.3052 44.9476 90.3052 45.5638V45.5953C90.3052 46.2431 89.705 46.6378 88.7098 46.6378C87.4462 46.6378 86.4037 46.1167 85.4086 45.2952L83.9712 47.017C85.2979 48.2013 86.9881 48.786 88.6623 48.786ZM95.0753 48.6277H97.4606V41.4568L100.541 46.1322H100.604L103.716 41.4096V48.628H106.132V37.5715H103.511L100.604 42.2468L97.6979 37.5715H95.0759V48.6277H95.0753ZM108.075 48.6277H110.555L111.566 46.1479H116.241L117.252 48.6277H119.795L115.056 37.4921H112.814L108.075 48.6277ZM112.434 43.9997L113.903 40.4141L115.372 43.9997H112.434ZM121.738 48.6277H124.17V45.0897H126.081L128.451 48.6277H131.294L128.593 44.679C129.999 44.1579 130.962 43.0364 130.962 41.2513V41.2198C130.962 40.1774 130.631 39.3086 130.015 38.6924C129.288 37.9658 128.198 37.5712 126.792 37.5712H121.738V48.6277H121.738ZM124.17 42.9415V39.7667H126.587C127.772 39.7667 128.498 40.3035 128.498 41.3462V41.3777C128.498 42.3098 127.819 42.9415 126.634 42.9415H124.17ZM135.969 48.6277H138.402V39.814H141.767V37.5712H132.605V39.814H135.97V48.6277H135.969Z" fill="#16216C"/>
<path d="M22.3411 7.21337V10.895C19.8375 9.77201 17.8446 9.21081 16.3582 9.21081C15.5112 9.21081 14.8348 9.35326 14.3378 9.63873C13.8362 9.9242 13.5877 10.3014 13.5877 10.7709C13.5877 11.1343 13.7672 11.4797 14.1309 11.8018C14.4897 12.1286 15.3688 12.5473 16.7678 13.063C18.1622 13.5783 19.2806 14.0569 20.1181 14.4986C20.9555 14.9406 21.6781 15.5617 22.2857 16.3625C22.8931 17.1679 23.1969 18.1805 23.1969 19.4092C23.1969 21.1582 22.5342 22.5526 21.204 23.5879C19.8741 24.6231 18.1252 25.1433 15.9529 25.1433C13.6104 25.1433 11.3415 24.5406 9.14173 23.3302V19.2894C10.4026 20.1269 11.5209 20.7346 12.4969 21.1164C13.4679 21.4984 14.5032 21.6916 15.5941 21.6916C17.4396 21.6916 18.3645 21.1072 18.3645 19.9427C18.3645 19.5422 18.1805 19.1651 17.8076 18.8151C17.4396 18.4605 16.5468 18.028 15.1384 17.5219C13.7302 17.0108 12.6164 16.5416 11.7927 16.1088C10.9643 15.6763 10.2555 15.0595 9.65277 14.259C9.0546 13.4582 8.75537 12.4318 8.75537 11.1756C8.75537 9.55561 9.40886 8.24864 10.7113 7.25006C12.0182 6.25607 13.7669 5.75907 15.9529 5.75907C17.969 5.75907 20.0997 6.24202 22.3411 7.21337ZM31.0941 6.03509V24.8667H26.4001V6.03509H31.0941ZM53.4053 7.30509V11.4195C51.0031 10.2596 48.6603 9.68001 46.3639 9.68001C44.155 9.68001 42.4522 10.2412 41.2556 11.3596C40.0589 12.478 39.4608 13.9045 39.4608 15.6397C39.4608 17.3009 40.0589 18.6491 41.2556 19.6755C42.4522 20.7065 44.026 21.2218 45.9819 21.2218C47.0128 21.2218 48.053 20.9963 49.0974 20.55V18.3502H46.3637V14.8987H53.7916V22.6073C53.0462 23.3528 51.914 23.9602 50.3906 24.4342C48.8673 24.908 47.3579 25.143 45.8667 25.143C42.59 25.143 39.8933 24.2365 37.7901 22.4187C35.6823 20.6007 34.6284 18.2906 34.6284 15.4832C34.6284 12.6161 35.6823 10.2782 37.7901 8.46961C39.8978 6.66106 42.6267 5.75879 45.977 5.75879C48.7477 5.75908 51.2238 6.27441 53.4053 7.30509ZM76.9587 6.03509V24.8667H73.0286L62.6003 12.8001V24.8667H57.9061V6.03509H62.209L72.2647 17.5448V6.03509H76.9587ZM95.1048 21.4153V24.8667H81.2155V6.03509H94.9113V9.48654H85.9098V13.435H94.4971V16.8867H85.9098V21.415H95.1048V21.4153ZM115.727 6.03509V9.48654H108.907V24.8667H104.212V9.48654H97.3923V6.03509H115.727Z" fill="#16216C"/>
<path fill-rule="evenodd" clip-rule="evenodd" d="M136.612 0.878834L135.461 0.583618C135.249 4.3793 134.574 8.27902 133.543 11.9234L129.182 8.36099L132.201 12.7738L125.07 13.3238L131.74 13.8964L125.932 18.286L132.679 14.7878C130.846 19.9725 129.098 23.9286 126.905 27.6584C126.923 28.1821 126.923 28.663 126.907 29.191C130.147 24.458 132.472 19.409 134.013 14.8586L137.941 18.2863L135.185 13.9781L142.054 13.3241L135.645 12.6984L141.191 8.36128L134.959 11.7276C136.002 8.06262 136.548 4.35522 136.612 0.878834Z" fill="#16216C"/>
<path d="M126.907 29.1906L127.748 27.2834C127.523 25.3677 126.239 23.5431 124.882 21.6216C123.062 19.0438 120.999 16.1225 120.999 12.3521C120.999 8.22508 123.284 4.48873 126.962 2.60106C126.979 2.59218 126.996 2.58243 127.012 2.57211C129.034 1.4371 131.472 0.980237 133.914 1.2273L134.008 0.0685056C133.548 0.0229334 133.088 0 132.63 0H132.613C130.407 0.00229294 128.253 0.533399 126.41 1.57554C126.406 1.57783 126.402 1.57984 126.398 1.58242C122.349 3.6753 119.835 7.7983 119.835 12.3518C119.835 16.4917 122.011 19.5734 123.931 22.2923C124.801 23.5242 125.6 24.6546 126.097 25.744C126.595 26.8343 126.742 27.806 126.907 29.1906ZM135.403 1.46634C135.956 1.58844 136.505 1.74693 137.045 1.94298C140.396 3.16053 142.924 5.64838 144.163 8.9485C144.682 10.3329 144.624 11.5375 144.572 12.6003C144.523 13.6212 144.481 14.5023 145.039 15.1543C145.308 15.4676 145.954 16.146 146.638 16.8646C147.38 17.6445 148.148 18.4505 148.481 18.8391C149.034 19.4837 148.958 20.0291 148.227 20.6629C148.069 20.7993 147.908 20.9257 147.751 21.0492C147.028 21.6161 146.208 22.259 146.208 23.5502V27.2832C146.208 29.2201 145.382 30.4884 143.445 30.4884H3.0886C2.85586 29.8928 2.27775 29.4701 1.5999 29.4701C0.716258 29.4701 0 30.1863 0 31.0702C0 31.9539 0.716258 32.6699 1.5999 32.6699C2.27775 32.6699 2.85586 32.2474 3.0886 31.6518H143.444C146.013 31.6518 147.371 29.8521 147.371 27.2832V23.5502C147.371 22.8569 147.748 22.5299 148.468 21.9641C148.64 21.8294 148.816 21.691 148.988 21.5419C150.189 20.5012 150.329 19.2077 149.364 18.0816C149.012 17.6703 148.233 16.8528 147.48 16.0623C146.836 15.3862 146.171 14.6872 145.922 14.3971C145.664 14.0964 145.695 13.461 145.734 12.6568C145.788 11.5395 145.855 10.1494 145.251 8.54006C143.892 4.91635 141.118 2.18546 137.442 0.849821C136.804 0.617947 136.154 0.434225 135.499 0.297508L135.403 1.46634Z" fill="#16216C"/>
</svg>
