<?xml version="1.0" encoding="utf-8"?>
<!-- Generator: Adobe Illustrator 26.3.1, SVG Export Plug-In . SVG Version: 6.00 Build 0)  -->
<svg version="1.1" id="Layer_1" xmlns="http://www.w3.org/2000/svg" xmlns:xlink="http://www.w3.org/1999/xlink" x="0px" y="0px"
	 viewBox="0 0 402.5 397.8" style="enable-background:new 0 0 402.5 397.8;" xml:space="preserve">
<style type="text/css">
	.st0{fill:#F36C48;}
</style>
<g>
	<path class="st0" d="M197.2,388.1c-105.6,0-191.4-86-191.2-191.4C6.3,90.9,91.9,5.6,197.7,5.7C303,5.8,388.8,91.9,388.5,197.1
		C388.2,302.8,302.8,388.1,197.2,388.1z M19.5,196.8C19.3,294.7,99,374.5,197.2,374.7c97.9,0.2,177.7-79.5,177.9-177.7
		c0.2-97.9-79.5-177.7-177.7-177.9C99.5,18.9,19.6,98.7,19.5,196.8z"/>
	<path class="st0" d="M232.4,237.2c0,12.7,0.2,25.4-0.1,38.1c-0.3,15.8-11.5,29.4-26.6,33c-15.4,3.7-31.6-3-38.8-17
		c-2.7-5.1-4.4-11.3-4.5-17.1c-0.5-24.9-0.3-49.9-0.2-74.8c0.1-19.8,15.8-35.2,35.2-35.1c19.4,0.1,34.7,15.3,35,35
		C232.6,212,232.4,224.6,232.4,237.2C232.4,237.2,232.4,237.2,232.4,237.2z M219,236.8c0-12.1,0-24.2,0-36.3
		c-0.1-13.1-9.3-22.7-21.7-22.7c-12.4,0-21.6,9.7-21.6,22.8c0,24.2,0,48.4,0,72.5c0,13.1,9.3,22.7,21.7,22.7
		c12.4,0,21.6-9.6,21.6-22.7C219,261,219,248.9,219,236.8z"/>
	<path class="st0" d="M197.5,84.5c19.3,0.1,35,15.7,35,35c0,19.4-16,35.3-35.3,35.1c-19.3-0.2-35-15.9-35-35.1
		C162.2,100.2,178,84.5,197.5,84.5z M219,119.6c0-12-9.6-21.6-21.6-21.6c-12,0-21.7,9.6-21.7,21.5c0,11.9,9.7,21.7,21.6,21.7
		C209.1,141.3,218.9,131.5,219,119.6z"/>
</g>
</svg>
