<svg width="2" height="15" viewBox="0 0 2 15" fill="none" xmlns="http://www.w3.org/2000/svg">
<path fill-rule="evenodd" clip-rule="evenodd" d="M2 1.38889C2 2.15595 1.55228 2.77778 1 2.77778C0.447715 2.77778 0 2.15595 0 1.38889C0 0.621827 0.447715 0 1 0C1.55228 0 2 0.621827 2 1.38889ZM2 7.5C2 8.26706 1.55228 8.88889 1 8.88889C0.447715 8.88889 0 8.26706 0 7.5C0 6.73294 0.447715 6.11111 1 6.11111C1.55228 6.11111 2 6.73294 2 7.5ZM1 15C1.55228 15 2 14.3782 2 13.6111C2 12.844 1.55228 12.2222 1 12.2222C0.447715 12.2222 0 12.844 0 13.6111C0 14.3782 0.447715 15 1 15Z" fill="white"/>
</svg>
