<svg width="286" height="93" viewBox="0 0 286 93" fill="none" xmlns="http://www.w3.org/2000/svg">
<path d="M17.2253 92.4565H21.8503V85.7296H25.4841L29.9892 92.4565H35.3951L30.26 84.9487C32.933 83.958 34.7646 81.8256 34.7646 78.4316V78.3717C34.7646 76.3897 34.1341 74.7379 32.963 73.5663C31.5815 72.1848 29.5091 71.4344 26.8367 71.4344H17.2264V92.4565H17.2253ZM21.8498 81.6452V75.6088H26.4448C28.6971 75.6088 30.0786 76.6295 30.0786 78.612V78.6719C30.0786 80.4441 28.787 81.6452 26.5348 81.6452H21.8498V81.6452ZM39.3885 92.4565H55.3954V88.3421H43.9836V83.9274H53.894V79.8131H43.9836V75.5483H55.2455V71.4339H39.3885V92.4565V92.4565ZM59.9604 92.4565H64.495V78.8223L70.351 87.7116H70.4715L76.388 78.7324V92.457H80.983V71.435H75.9978L70.472 80.3242L64.9462 71.435H59.961V92.4565H59.9604ZM96.6896 92.8172C103.176 92.8172 107.892 87.9219 107.892 81.946V81.8855C107.892 75.909 103.237 71.0742 96.7496 71.0742C90.263 71.0742 85.5475 75.9695 85.5475 81.9455V82.0054C85.5475 87.9819 90.2025 92.8172 96.6896 92.8172ZM96.7496 88.5524C93.0259 88.5524 90.3829 85.5492 90.3829 81.9455V81.885C90.3829 78.2812 92.966 75.3379 96.6896 75.3379C100.413 75.3379 103.056 78.3411 103.056 81.9449V82.0048C103.056 85.6097 100.474 88.5524 96.7496 88.5524ZM116.451 92.4565H121.076V75.6987H127.472V71.4344H110.054V75.6987H116.451V92.4565ZM131.467 92.4565H147.474V88.3421H136.062V83.9274H145.972V79.8131H136.062V75.5483H147.324V71.4339H131.467V92.4565ZM168.976 92.7573C173.511 92.7573 176.694 90.4145 176.694 86.2402V86.1797C176.694 82.516 174.292 80.9842 170.028 79.873C166.393 78.9422 165.493 78.4915 165.493 77.1101V77.0502C165.493 76.0289 166.424 75.218 168.195 75.218C169.967 75.218 171.8 75.9989 173.661 77.2905L176.064 73.8071C173.932 72.0949 171.319 71.1342 168.256 71.1342C163.961 71.1342 160.898 73.6567 160.898 77.4709V77.5308C160.898 81.7051 163.631 82.8768 167.866 83.958C171.379 84.8588 172.1 85.4593 172.1 86.6309V86.6909C172.1 87.9225 170.959 88.6729 169.067 88.6729C166.664 88.6729 164.682 87.6822 162.79 86.1203L160.057 89.3939C162.58 91.6456 165.793 92.7573 168.976 92.7573ZM181.17 92.4565H185.705V78.8223L191.561 87.7116H191.681L197.598 78.7324V92.457H202.193V71.435H197.208L191.682 80.3242L186.156 71.435H181.171V92.4565H181.17ZM205.886 92.4565H210.601L212.523 87.7416H221.412L223.334 92.4565H228.17L219.16 71.284H214.896L205.886 92.4565ZM214.175 83.6571L216.967 76.8398L219.76 83.6571H214.175ZM231.863 92.4565H236.488V85.7296H240.122L244.627 92.4565H250.033L244.897 84.9487C247.57 83.958 249.402 81.8256 249.402 78.4316V78.3717C249.402 76.3897 248.771 74.7379 247.6 73.5663C246.219 72.1848 244.146 71.4344 241.474 71.4344H231.864V92.4565H231.863ZM236.488 81.6452V75.6088H241.083C243.335 75.6088 244.717 76.6295 244.717 78.612V78.6719C244.717 80.4441 243.425 81.6452 241.173 81.6452H236.488V81.6452ZM258.922 92.4565H263.547V75.6987H269.944V71.4344H252.526V75.6987H258.923V92.4565H258.922Z" fill="#16216C"/>
<path d="M42.8788 13.7151V20.715C38.1186 18.5799 34.3296 17.5128 31.5035 17.5128C29.8931 17.5128 28.6071 17.7837 27.6621 18.3265C26.7085 18.8692 26.236 19.5864 26.236 20.479C26.236 21.17 26.5771 21.8267 27.2687 22.4392C27.9509 23.0605 29.6223 23.8566 32.2822 24.837C34.9334 25.8168 37.0598 26.7269 38.6521 27.5667C40.2445 28.407 41.6183 29.5879 42.7736 31.1105C43.9284 32.6418 44.506 34.5671 44.506 36.9033C44.506 40.2286 43.2461 42.8798 40.717 44.8482C38.1884 46.8165 34.8631 47.8056 30.7329 47.8056C26.279 47.8056 21.9652 46.6596 17.7827 44.3583V36.6755C20.1799 38.2679 22.3063 39.4232 24.1619 40.1491C26.0082 40.8755 27.9766 41.2428 30.0506 41.2428C33.5596 41.2428 35.3181 40.1316 35.3181 37.9175C35.3181 37.1562 34.9683 36.439 34.2593 35.7736C33.5596 35.0995 31.8621 34.2772 29.1842 33.3148C26.5068 32.3432 24.3891 31.4511 22.8229 30.6282C21.248 29.8059 19.9004 28.6331 18.7543 27.1111C17.617 25.5885 17.0481 23.637 17.0481 21.2485C17.0481 18.1684 18.2906 15.6835 20.7668 13.7848C23.2518 11.895 26.5766 10.95 30.7329 10.95C34.5661 10.95 38.6173 11.8682 42.8788 13.7151ZM59.5211 11.4748V47.2797H50.5964V11.4748H59.5211V11.4748ZM101.942 13.8895V21.7123C97.3745 19.5068 92.92 18.4049 88.5539 18.4049C84.3539 18.4049 81.1164 19.472 78.8412 21.5984C76.566 23.7248 75.4287 26.437 75.4287 29.7361C75.4287 32.8947 76.566 35.4581 78.8412 37.4096C81.1164 39.3698 84.1087 40.3496 87.8275 40.3496C89.7877 40.3496 91.7653 39.9207 93.7511 39.0722V34.8897H88.5533V28.3274H102.676V42.9839C101.259 44.4013 99.1063 45.5561 96.2099 46.4574C93.3135 47.3582 90.4438 47.8051 87.6084 47.8051C81.3785 47.8051 76.2511 46.0814 72.2522 42.6253C68.2446 39.1687 66.2409 34.7764 66.2409 29.4386C66.2409 23.9874 68.2446 19.5422 72.2522 16.1036C76.2598 12.665 81.4483 10.9495 87.8182 10.9495C93.0862 10.95 97.7941 11.9298 101.942 13.8895ZM146.724 11.4748V47.2797H139.252L119.424 24.3373V47.2797H110.499V11.4748H118.68L137.8 33.3584V11.4748H146.724V11.4748ZM181.226 40.7174V47.2797H154.818V11.4748H180.858V18.0371H163.743V25.5443H180.07V32.1072H163.743V40.7169H181.226V40.7174ZM220.435 11.4748V18.0371H207.467V47.2797H198.542V18.0371H185.575V11.4748H220.435Z" fill="#16216C"/>
<path fill-rule="evenodd" clip-rule="evenodd" d="M260.144 1.67067L257.956 1.10938C257.553 8.32617 256.27 15.7408 254.31 22.6698L246.017 15.8966L251.758 24.2867L238.199 25.3325L250.882 26.4213L239.838 34.7672L252.667 28.1161C249.182 37.9737 245.859 45.4957 241.687 52.5871C241.723 53.5827 241.722 54.4972 241.692 55.501C247.851 46.5022 252.273 36.9023 255.202 28.2507L262.672 34.7677L257.431 26.5766L270.491 25.333L258.306 24.1434L268.851 15.8972L257.001 22.2976C258.985 15.3293 260.023 8.28039 260.144 1.67067Z" fill="#16216C"/>
<path d="M241.691 55.5006L243.29 51.8745C242.863 48.232 240.421 44.7629 237.841 41.1095C234.381 36.2082 230.459 30.6541 230.459 23.4852C230.459 15.6385 234.803 8.53449 241.796 4.94544C241.829 4.92855 241.861 4.91001 241.892 4.89039C245.735 2.73239 250.371 1.86374 255.014 2.33349L255.193 0.130251C254.319 0.0436036 253.444 0 252.573 0H252.541C248.346 0.00435961 244.25 1.01416 240.747 2.9956C240.74 2.99996 240.732 3.00377 240.724 3.00867C233.025 6.98791 228.246 14.827 228.246 23.4847C228.246 31.356 232.383 37.2153 236.034 42.3847C237.688 44.7269 239.206 46.8762 240.151 48.9475C241.098 51.0205 241.379 52.8679 241.691 55.5006ZM257.846 2.78797C258.897 3.02012 259.941 3.32147 260.967 3.69422C267.339 6.00917 272.145 10.7394 274.5 17.0139C275.487 19.646 275.377 21.9365 275.279 23.9572C275.185 25.8983 275.105 27.5734 276.167 28.8132C276.677 29.4088 277.906 30.6987 279.207 32.0649C280.618 33.5477 282.078 35.0802 282.711 35.8191C283.762 37.0447 283.617 38.0818 282.227 39.2866C281.928 39.546 281.621 39.7864 281.322 40.0212C279.948 41.0991 278.39 42.3215 278.39 44.7765V51.8739C278.39 55.5567 276.818 57.9681 273.135 57.9681H6.27376C5.83126 56.8357 4.7321 56.0319 3.44329 56.0319C1.7632 56.0319 0.401367 57.3937 0.401367 59.0744C0.401367 60.7545 1.7632 62.1157 3.44329 62.1157C4.7321 62.1157 5.83126 61.3125 6.27376 60.1801H273.134C278.019 60.1801 280.601 56.7583 280.601 51.8739V44.7765C280.601 43.4582 281.316 42.8364 282.686 41.7607C283.013 41.5046 283.348 41.2414 283.675 40.958C285.958 38.9793 286.225 36.5199 284.39 34.3788C283.72 33.5968 282.239 32.0426 280.808 30.5396C279.583 29.2541 278.318 27.9249 277.845 27.3734C277.355 26.8018 277.414 25.5936 277.488 24.0645C277.591 21.9403 277.718 19.2973 276.57 16.2374C273.985 9.34755 268.712 4.15525 261.722 1.61578C260.509 1.17491 259.273 0.825598 258.028 0.565656L257.846 2.78797Z" fill="#16216C"/>
</svg>
