<svg width="18" height="21" viewBox="0 0 18 21" fill="none" xmlns="http://www.w3.org/2000/svg">
<path d="M0.76001 16.11V12.12C0.76001 10.38 2.17001 8.95999 3.92001 8.95999H14.09C15.83 8.95999 17.25 10.37 17.25 12.12V16.11C17.25 17.85 15.84 19.27 14.09 19.27H3.92001C2.17001 19.27 0.76001 17.86 0.76001 16.11Z" stroke="black" stroke-width="1.5" stroke-linecap="round" stroke-linejoin="round"/>
<path d="M3.8501 8.96999V5.91999C3.8501 3.07999 6.16009 0.769989 9.00009 0.769989C11.8401 0.769989 14.1501 3.07999 14.1501 5.91999V8.96999H3.8501Z" stroke="black" stroke-width="1.5" stroke-linecap="round" stroke-linejoin="round"/>
<path d="M9 16.18V13.6" stroke="black" stroke-width="1.5" stroke-linecap="round" stroke-linejoin="round"/>
<path d="M8.99997 14.12C9.56882 14.12 10.03 13.6588 10.03 13.09C10.03 12.5211 9.56882 12.06 8.99997 12.06C8.43112 12.06 7.96997 12.5211 7.96997 13.09C7.96997 13.6588 8.43112 14.12 8.99997 14.12Z" fill="black" stroke="black" stroke-width="1.5" stroke-linecap="round" stroke-linejoin="round"/>
</svg>
