<svg width="1024" height="1024" viewBox="0 0 1024 1024" fill="none" xmlns="http://www.w3.org/2000/svg">
<rect width="1024" height="1024" fill="#16216C"/>
<path d="M893.551 549.127C886.108 540.377 869.585 523.122 853.635 506.357C839.975 492.046 825.906 477.245 820.589 471.111C815.109 464.733 815.763 451.239 816.581 434.23C817.727 410.596 819.117 381.074 806.357 346.973C777.565 270.184 718.754 212.368 640.884 184.073C627.388 179.166 613.564 175.241 599.659 172.379L599.168 178.512L598.841 178.43C594.342 258.817 580.028 341.494 558.188 418.692L465.759 343.212L529.723 436.683L378.565 448.295L519.908 460.398L396.969 553.461L539.948 479.371C505.185 577.585 471.894 654.947 432.059 726.747C422.816 692.401 399.341 659.036 374.72 624.199C336.194 569.571 292.434 507.666 292.434 427.769C292.434 340.349 340.857 261.189 418.808 221.2C419.135 221.036 419.544 220.791 419.872 220.545C462.651 196.503 514.346 186.771 566.122 192.005L568.167 167.472C558.434 166.491 548.7 166 538.966 166H538.557C491.77 166.082 446.128 177.285 407.111 199.365C407.03 199.447 406.948 199.447 406.866 199.529C321.062 243.852 267.813 331.19 267.813 427.688C267.813 515.435 313.946 580.693 354.598 638.264C373.003 664.351 389.934 688.312 400.486 711.373C411.038 734.434 414.146 755.042 417.663 784.4C486.29 684.141 535.613 577.177 568.249 480.761L651.436 553.461L593.033 462.198L738.63 448.377L602.849 435.129L720.389 343.212L588.289 414.521C608.493 343.62 619.862 271.902 622.725 203.863C625.997 204.926 629.269 205.989 632.459 207.216C703.458 232.976 757.034 285.722 783.29 355.642C794.333 385 793.024 410.514 791.961 433.003C790.897 454.592 789.998 473.319 801.858 487.14C807.584 493.764 821.244 508.156 835.722 523.367C851.426 539.886 867.704 556.978 874.82 565.237C886.517 578.894 884.881 590.424 869.421 603.836C866.068 606.698 862.632 609.397 859.361 612.014C844.065 624.035 826.642 637.61 826.642 665.005V744.084C826.642 785.136 809.138 811.959 768.076 811.959H208.92V811.796H181.437C176.529 799.202 164.26 790.207 149.863 790.207C131.132 790.207 116 805.417 116 824.144C116 842.871 131.214 858 149.863 858C164.178 858 176.365 849.168 181.355 836.656H768.076C822.552 836.656 851.263 798.548 851.263 744.084V665.005C851.263 650.286 859.279 643.416 874.493 631.395C878.174 628.533 881.854 625.589 885.535 622.481C910.974 600.401 914 573.006 893.551 549.127Z" fill="white"/>
</svg>
