<?xml version="1.0" encoding="UTF-8"?>
<svg xmlns="http://www.w3.org/2000/svg" xmlns:xlink="http://www.w3.org/1999/xlink" width="18px" height="18px" viewBox="0 0 18 18" version="1.1">
<g id="surface1">
<path style="fill:none;stroke-width:1.5;stroke-linecap:round;stroke-linejoin:round;stroke:rgb(0%,0%,0%);stroke-opacity:1;stroke-miterlimit:4;" d="M 17.21875 14.618056 C 17.21875 15.46875 16.53125 16.158854 15.679688 16.158854 L 2.320312 16.158854 C 1.46875 16.158854 0.78125 15.46875 0.78125 14.618056 C 0.78125 13.771701 1.46875 13.081597 2.320312 13.081597 L 2.828125 13.081597 L 2.828125 7.938368 C 2.828125 4.539931 5.589844 1.770833 9 1.770833 C 10.699219 1.770833 12.238281 2.460938 13.359375 3.580729 C 14.480469 4.69184 15.171875 6.228299 15.171875 7.938368 L 15.171875 13.081597 L 15.679688 13.081597 C 16.53125 13.081597 17.21875 13.771701 17.21875 14.618056 Z M 17.21875 14.618056 " transform="matrix(1,0,0,0.9,0,0)"/>
<path style="fill:none;stroke-width:1.5;stroke-linecap:round;stroke-linejoin:round;stroke:rgb(0%,0%,0%);stroke-opacity:1;stroke-miterlimit:4;" d="M 9 1.779514 L 9 0.750868 " transform="matrix(1,0,0,0.9,0,0)"/>
<path style="fill:none;stroke-width:1.5;stroke-linecap:round;stroke-linejoin:round;stroke:rgb(0%,0%,0%);stroke-opacity:1;stroke-miterlimit:4;" d="M 12.078125 16.171875 C 12.078125 17.881944 10.699219 19.249132 9 19.249132 C 7.300781 19.249132 5.917969 17.868924 5.917969 16.171875 Z M 12.078125 16.171875 " transform="matrix(1,0,0,0.9,0,0)"/>
</g>
</svg>
