<svg width="18" height="20" viewBox="0 0 18 20" fill="none" xmlns="http://www.w3.org/2000/svg">
<path d="M17.22 14.62C17.22 15.47 16.53 16.16 15.68 16.16H2.32004C1.47004 16.16 0.780029 15.47 0.780029 14.62C0.780029 13.77 1.47004 13.08 2.32004 13.08H2.83002V7.94C2.83002 4.54 5.59003 1.77 9.00003 1.77C10.7 1.77 12.24 2.46 13.36 3.58C14.48 4.69 15.17 6.23 15.17 7.94V13.08H15.68C16.53 13.08 17.22 13.77 17.22 14.62Z" stroke="black" stroke-width="1.5" stroke-linecap="round" stroke-linejoin="round"/>
<path d="M9 1.78V0.75" stroke="black" stroke-width="1.5" stroke-linecap="round" stroke-linejoin="round"/>
<path d="M12.0799 16.17C12.0799 17.88 10.6999 19.25 8.99991 19.25C7.29991 19.25 5.91992 17.87 5.91992 16.17H12.0799Z" stroke="black" stroke-width="1.5" stroke-linecap="round" stroke-linejoin="round"/>
</svg>
