<?xml version="1.0" encoding="UTF-8"?>
<svg xmlns="http://www.w3.org/2000/svg" xmlns:xlink="http://www.w3.org/1999/xlink" width="18px" height="18px" viewBox="0 0 18 18" version="1.1">
<g id="surface1">
<path style="fill:none;stroke-width:1.5;stroke-linecap:round;stroke-linejoin:round;stroke:rgb(0%,0%,0%);stroke-opacity:1;stroke-miterlimit:4;" d="M 6.759983 6.861111 C 8.37934 6.861111 9.688802 5.548611 9.688802 3.930556 C 9.688802 2.3125 8.37934 1 6.759983 1 C 5.140625 1 3.831163 2.3125 3.831163 3.930556 C 3.831163 5.548611 5.140625 6.861111 6.759983 6.861111 Z M 6.759983 6.861111 " transform="matrix(1.285714,0,0,1.125,0,0)"/>
<path style="fill:none;stroke-width:1.5;stroke-linecap:round;stroke-linejoin:round;stroke:rgb(0%,0%,0%);stroke-opacity:1;stroke-miterlimit:4;" d="M 0.84158 15 L 0.84158 13.329861 C 0.84158 11.378472 2.421441 9.809028 4.359809 9.809028 L 9.631076 9.809028 C 11.581597 9.809028 13.149306 11.388889 13.149306 13.329861 L 13.149306 15 " transform="matrix(1.285714,0,0,1.125,0,0)"/>
</g>
</svg>
