<?xml version="1.0" encoding="UTF-8"?>
<svg xmlns="http://www.w3.org/2000/svg" xmlns:xlink="http://www.w3.org/1999/xlink" width="18px" height="18px" viewBox="0 0 18 18" version="1.1">
<g id="surface1">
<path style="fill:none;stroke-width:1.5;stroke-linecap:round;stroke-linejoin:round;stroke:rgb(0%,0%,0%);stroke-opacity:1;stroke-miterlimit:4;" d="M 16.578125 20.989583 C 15.260417 19.8125 13.947917 18.567708 12.630208 17.432292 C 12.260417 17.109375 11.708333 17.109375 11.338542 17.432292 C 10.03125 18.5625 8.71875 19.802083 7.411458 20.979167 C 6.770833 21.5625 5.739583 21.098958 5.739583 20.229167 L 5.739583 4.739583 C 5.739583 3.640625 6.640625 2.739583 7.739583 2.739583 L 16.239583 2.739583 C 17.338542 2.739583 18.239583 3.640625 18.239583 4.739583 L 18.239583 20.229167 C 18.25 21.109375 17.229167 21.567708 16.578125 20.989583 Z M 16.578125 20.989583 " transform="matrix(0.75,0,0,0.75,0,0)"/>
</g>
</svg>
