<svg width="24" height="24" viewBox="0 0 24 24" fill="none" xmlns="http://www.w3.org/2000/svg">
<path d="M19.1901 17.63C17.4501 16.07 14.8701 15.09 12.0001 15.09C9.13006 15.09 6.55006 16.08 4.81006 17.63" stroke="black" stroke-width="1.5" stroke-linecap="round" stroke-linejoin="round"/>
<path d="M11.9999 12C13.4193 12 14.5699 10.8494 14.5699 9.42999C14.5699 8.01062 13.4193 6.85999 11.9999 6.85999C10.5806 6.85999 9.42993 8.01062 9.42993 9.42999C9.42993 10.8494 10.5806 12 11.9999 12Z" stroke="black" stroke-width="1.5" stroke-linecap="round" stroke-linejoin="round"/>
<path d="M12 21.25C17.1086 21.25 21.25 17.1086 21.25 12C21.25 6.89137 17.1086 2.75 12 2.75C6.89137 2.75 2.75 6.89137 2.75 12C2.75 17.1086 6.89137 21.25 12 21.25Z" stroke="black" stroke-width="1.5" stroke-linecap="round" stroke-linejoin="round"/>
</svg>
